<svg width="216" height="89" viewBox="0 0 216 89" fill="none" xmlns="http://www.w3.org/2000/svg">
    <path d="M206.36 88C202.066 88 201.804 84.695 201.804 82.565V62.99C201.804 60.86 202.066 57.558 206.36 57.558H211.445C215.739 57.558 216.001 60.858 216.001 62.99V82.565C216.001 84.695 215.739 88 211.445 88H206.36ZM207.941 61.9V83.645C207.932 83.7754 207.951 83.9062 207.996 84.029C208.041 84.1518 208.111 84.2639 208.201 84.358C208.292 84.4522 208.401 84.5264 208.522 84.5758C208.643 84.6252 208.773 84.6488 208.904 84.645C209.033 84.6433 209.161 84.616 209.279 84.5647C209.398 84.5134 209.505 84.4391 209.594 84.3461C209.684 84.2531 209.754 84.1432 209.801 84.0229C209.848 83.9025 209.87 83.7741 209.867 83.645V61.905C209.87 61.776 209.847 61.6478 209.8 61.5276C209.753 61.4074 209.683 61.2977 209.593 61.2048C209.504 61.1118 209.397 61.0375 209.279 60.9861C209.16 60.9346 209.033 60.9071 208.904 60.905C208.773 60.9015 208.643 60.9253 208.523 60.9749C208.402 61.0244 208.292 61.0985 208.202 61.1926C208.111 61.2867 208.041 61.3986 207.996 61.5212C207.951 61.6439 207.932 61.7746 207.94 61.905L207.941 61.9ZM124.108 88C119.814 88 119.551 84.695 119.551 82.565V77.343H125.685V83.65C125.676 83.7805 125.695 83.9113 125.74 84.0341C125.785 84.1569 125.855 84.2689 125.946 84.3631C126.037 84.4572 126.146 84.5314 126.267 84.5808C126.388 84.6302 126.518 84.6538 126.649 84.65C126.778 84.6483 126.906 84.621 127.024 84.5697C127.143 84.5184 127.25 84.4441 127.34 84.3511C127.429 84.2581 127.5 84.1483 127.547 84.028C127.593 83.9076 127.616 83.7791 127.613 83.65V73.994H122.661V70.646H127.613V61.905C127.616 61.776 127.593 61.6477 127.546 61.5275C127.499 61.4073 127.428 61.2976 127.339 61.2047C127.249 61.1118 127.142 61.0375 127.024 60.9861C126.905 60.9346 126.778 60.9071 126.649 60.905C126.518 60.9017 126.389 60.9256 126.268 60.9752C126.147 61.0247 126.038 61.0989 125.947 61.1929C125.856 61.287 125.786 61.3988 125.741 61.5214C125.696 61.644 125.677 61.7746 125.685 61.905V67.296H119.55V62.99C119.55 60.86 119.813 57.555 124.107 57.555H129.191C133.485 57.555 133.748 60.86 133.748 62.99V82.565C133.748 84.695 133.485 88 129.191 88H124.108ZM106.492 88C102.198 88 101.936 84.695 101.936 82.565V62.99C101.936 60.86 102.198 57.558 106.492 57.558H111.577C115.871 57.558 116.133 60.858 116.133 62.99V67.296H110V61.905C110.003 61.7758 109.979 61.6473 109.932 61.527C109.885 61.4067 109.814 61.2969 109.724 61.2039C109.635 61.111 109.527 61.0368 109.409 60.9855C109.29 60.9342 109.162 60.9068 109.033 60.905C108.903 60.9018 108.773 60.9258 108.652 60.9755C108.532 61.0251 108.422 61.0993 108.332 61.1933C108.242 61.2874 108.172 61.3992 108.127 61.5217C108.082 61.6442 108.063 61.7748 108.071 61.905V83.65C108.062 83.7804 108.081 83.9111 108.125 84.0339C108.17 84.1567 108.24 84.2688 108.331 84.363C108.421 84.4572 108.53 84.5314 108.651 84.5808C108.772 84.6302 108.902 84.6538 109.033 84.65C109.162 84.6486 109.29 84.6215 109.409 84.5703C109.528 84.5191 109.635 84.4449 109.725 84.3519C109.815 84.2589 109.886 84.149 109.933 84.0285C109.98 83.908 110.003 83.7793 110 83.65V77.343H116.133V82.565C116.133 84.695 115.871 88 111.577 88H106.492ZM88.877 88C84.583 88 84.321 84.695 84.321 82.565V62.99C84.321 60.86 84.583 57.558 88.877 57.558H93.962C98.262 57.558 98.518 60.858 98.518 62.99V82.565C98.518 84.695 98.257 88 93.962 88H88.877ZM90.455 61.9V83.645C90.4466 83.7754 90.4655 83.9062 90.5105 84.0289C90.5555 84.1517 90.6256 84.2636 90.7163 84.3577C90.807 84.4518 90.9164 84.526 91.0374 84.5755C91.1584 84.6249 91.2883 84.6486 91.419 84.645C91.5482 84.6434 91.6758 84.6163 91.7944 84.565C91.913 84.5137 92.0203 84.4395 92.11 84.3464C92.1996 84.2534 92.27 84.1435 92.3168 84.0231C92.3637 83.9027 92.3862 83.7742 92.383 83.645V61.905C92.3858 61.7759 92.363 61.6476 92.316 61.5273C92.269 61.4071 92.1987 61.2974 92.1091 61.2044C92.0195 61.1115 91.9124 61.0372 91.7939 60.9858C91.6755 60.9344 91.5481 60.9069 91.419 60.905C91.2883 60.9016 91.1583 60.9254 91.0373 60.9749C90.9163 61.0243 90.8069 61.0985 90.716 61.1925C90.6252 61.2865 90.5549 61.3984 90.5096 61.5211C90.4643 61.6437 90.4451 61.7745 90.453 61.905L90.455 61.9ZM0.00300598 57.55C0.0339773 49.4459 3.28296 41.6861 9.03525 35.9775C14.7875 30.2689 22.5719 27.0792 30.676 27.11V50C27.8585 49.9949 25.0826 50.6804 22.5914 51.9966C20.1002 53.3128 17.9696 55.2196 16.386 57.55C14.1557 60.8352 13.1457 64.7975 13.5313 68.7495C13.9169 72.7015 15.6737 76.3939 18.497 79.186C21.7314 82.3864 26.0958 84.1846 30.6459 84.1915C35.196 84.1985 39.5659 82.4135 42.81 79.223C42.8289 79.2095 42.847 79.1948 42.864 79.179C42.877 79.164 42.894 79.156 42.908 79.139C43.7075 78.3473 44.3422 77.4051 44.7754 76.3666C45.2085 75.3282 45.4315 74.2141 45.4315 73.089C45.4315 71.9638 45.2085 70.8498 44.7754 69.8114C44.3422 68.773 43.7075 67.8307 42.908 67.039C41.2847 65.4315 39.0926 64.5297 36.808 64.5297C34.5235 64.5297 32.3313 65.4315 30.708 67.039L30.673 67.078V57.557H53.06V78.366C48.8542 82.8231 43.4113 85.9204 37.4313 87.2597C31.4512 88.599 25.2073 88.119 19.5021 85.8816C13.797 83.6442 8.89143 79.7515 5.41612 74.704C1.94082 69.6565 0.0546102 63.685 0 57.557L0.00300598 57.55ZM187.474 87.994V57.555H199.174V60.902H193.609V88.002L187.474 87.994ZM170.122 87.994V57.555H179.763C184.057 57.555 184.32 60.855 184.32 62.989V72.21C184.32 74.342 184.057 77.648 179.763 77.648H176.255V87.999L170.122 87.994ZM176.257 74.294H177.047C177.704 74.294 178.187 73.729 178.187 72.772V62.426C178.187 61.468 177.704 60.903 177.047 60.903H176.257V74.294ZM154.784 87.994V57.555H167.232V60.902H160.921V70.342H167.232V73.691H160.921V84.649H167.491V87.999L154.784 87.994ZM145.233 87.994V73.69H143.303V87.998H137.168V57.555H143.303V70.341H145.233V57.555H151.367V87.999L145.233 87.994ZM74.766 87.994V68.905H74.548L71.392 87.999H66.485L63.328 68.905H63.111V87.999H56.977V57.555H64.953L68.94 78.955L72.928 57.555H80.902V87.999L74.766 87.994ZM36.824 46.777C35.1724 42.6487 34.0265 38.3357 33.411 33.932C32.6065 27.2111 33.1746 20.3969 35.081 13.902C36.6512 8.9773 38.9066 4.29805 41.781 0.00198364C42.43 1.08598 47.142 7.73101 49.021 15.902C50.9 24.073 50.865 29.086 50.046 34.812C48.9877 42.3136 46.167 49.4578 41.815 55.659C39.8189 52.8978 38.1444 49.9179 36.824 46.777ZM39.285 43.52C39.3062 47.0365 40.1609 50.4978 41.779 53.62C43.4852 50.3733 44.3305 46.7434 44.234 43.077C44.1364 39.7512 43.3089 36.4875 41.81 33.517C40.1513 36.5901 39.2835 40.0278 39.285 43.52ZM36.861 15.997C35.9223 19.4524 35.3495 22.9968 35.152 26.572C35.0284 30.4758 35.2924 34.3823 35.94 38.234C35.8965 34.1954 36.2624 30.1628 37.032 26.198C38.023 21.7358 39.6081 17.4267 41.745 13.386C45.8873 20.9552 47.8939 29.5083 47.55 38.13C48.1227 35.3757 48.4315 32.573 48.472 29.76C48.5325 25.0566 47.9351 20.3679 46.697 15.83C45.5131 11.8251 43.8504 7.97766 41.745 4.371C39.6886 8.05235 38.0498 11.9519 36.859 15.997H36.861Z" fill="#006BB6"/>
</svg>